<?xml version="1.0" standalone="no"?>
<!DOCTYPE svg PUBLIC "-//W3C//DTD SVG 20010904//EN"
 "http://www.w3.org/TR/2001/REC-SVG-20010904/DTD/svg10.dtd">
<svg version="1.0" xmlns="http://www.w3.org/2000/svg"
 width="2048.000000pt" height="2048.000000pt" viewBox="0 0 2048.000000 2048.000000"
 preserveAspectRatio="xMidYMid meet">
<metadata>
Created by potrace 1.16, written by Peter Selinger 2001-2019
</metadata>
<g transform="translate(0.000000,2048.000000) scale(0.100000,-0.100000)"
fill="#000000" stroke="none">
<path d="M0 10240 l0 -10240 10240 0 10240 0 0 10240 0 10240 -10240 0 -10240
0 0 -10240z m10294 5532 c18 -37 57 -105 85 -152 55 -91 59 -105 36 -114 -29
-11 -55 -69 -54 -121 1 -61 14 -100 56 -159 l33 -46 52 29 c29 16 89 40 133
54 257 80 491 57 850 -83 224 -88 275 -101 380 -103 74 -2 96 2 124 18 43 25
49 43 18 50 -57 15 -95 103 -67 154 30 56 127 78 186 42 64 -39 86 -149 46
-227 -44 -85 -155 -158 -261 -171 -28 -3 -51 -8 -51 -11 0 -10 79 -210 207
-522 69 -168 187 -456 263 -640 75 -184 151 -363 169 -397 l31 -63 -17 -42
c-79 -201 -295 -349 -565 -389 -291 -42 -609 64 -761 255 -45 57 -87 140 -87
172 0 12 25 82 56 155 80 190 333 800 480 1155 68 166 124 306 124 312 0 10
-65 29 -126 36 -17 2 -107 25 -200 51 -93 26 -209 56 -259 66 -124 26 -287 25
-390 -1 -161 -41 -305 -133 -305 -196 -1 -41 -49 -125 -87 -149 l-32 -20 -1
-731 0 -731 48 -30 c57 -35 87 -88 77 -134 -4 -16 -22 -46 -41 -66 l-35 -37
32 -83 c17 -45 50 -110 72 -145 54 -83 176 -204 256 -255 l64 -41 -231 6 -232
5 0 -34 c0 -19 3 -44 6 -56 l6 -23 350 0 c221 0 365 -4 393 -11 61 -15 119
-68 139 -126 9 -25 16 -54 16 -62 0 -14 -100 -16 -1030 -16 l-1030 0 6 35 c9
46 26 79 60 114 63 62 54 61 467 64 l377 3 0 52 0 52 -224 -1 -224 0 62 39
c132 85 259 243 323 402 l32 80 -34 28 c-21 17 -39 44 -47 68 -16 56 8 99 79
140 l53 30 0 726 0 726 -48 46 c-47 45 -82 115 -82 165 0 14 -16 32 -48 53
-238 159 -462 174 -865 57 -165 -48 -316 -84 -349 -84 -16 0 -28 -4 -28 -9 0
-10 147 -369 268 -656 44 -104 130 -313 191 -462 61 -150 134 -325 162 -389
l51 -117 -38 -76 c-151 -308 -628 -450 -1012 -301 -149 58 -286 169 -340 276
-49 98 -49 89 22 256 35 84 112 270 169 413 58 143 136 334 175 425 230 548
261 624 257 628 -2 2 -31 10 -64 18 -114 26 -187 76 -227 156 -68 135 -17 253
111 253 46 0 58 -4 84 -29 58 -56 48 -133 -23 -171 -20 -11 -36 -25 -36 -31 0
-7 19 -22 43 -33 79 -38 208 -22 395 50 232 90 389 139 487 154 105 16 270 20
262 8 -3 -5 18 -8 46 -9 74 -1 169 -28 265 -76 46 -22 84 -39 86 -37 72 100
74 105 81 170 8 71 -3 106 -44 143 -12 11 -21 24 -21 30 0 6 36 71 80 145 44
73 82 142 85 152 4 11 8 19 11 19 2 0 19 -30 38 -68z m-5392 -3061 c1598 -643
1488 -601 1843 -705 391 -114 599 -155 1211 -240 137 -19 328 -47 424 -61 289
-44 397 -31 776 94 198 65 280 81 411 80 102 0 106 -1 68 -13 -108 -34 -151
-78 -310 -316 -67 -102 -164 -240 -214 -308 -107 -144 -131 -188 -131 -239 1
-80 64 -164 156 -204 88 -39 229 -43 354 -9 62 16 210 94 279 146 55 41 142
128 171 170 13 19 35 24 175 40 88 11 219 19 291 19 l131 0 84 -42 c46 -23
129 -77 184 -121 55 -43 197 -152 315 -243 210 -160 347 -274 540 -449 52 -48
190 -170 305 -272 258 -227 323 -295 365 -378 76 -151 18 -306 -133 -356 -33
-11 -65 -14 -95 -10 -78 11 -113 36 -438 317 -195 169 -287 262 -368 372 -31
43 -62 77 -69 74 -7 -2 -13 -25 -15 -51 -6 -93 22 -130 291 -383 385 -362 413
-391 427 -443 42 -157 -67 -318 -229 -337 -108 -12 -187 40 -484 323 -98 93
-199 188 -226 210 -82 70 -176 93 -176 44 0 -7 43 -52 95 -98 342 -307 483
-437 506 -468 72 -94 17 -257 -108 -320 -78 -40 -152 -43 -223 -10 -70 32 -81
41 -335 265 -113 100 -224 191 -248 202 -61 30 -114 35 -136 14 -27 -27 -16
-45 56 -89 75 -45 268 -203 395 -321 59 -54 86 -87 94 -114 23 -76 -22 -155
-115 -203 -30 -16 -59 -22 -111 -22 -83 0 -138 20 -270 95 -92 53 -312 195
-319 207 -2 4 3 39 11 79 12 57 12 83 3 126 -20 99 -97 188 -186 217 -19 7
-33 15 -32 18 44 82 53 111 52 182 0 92 -31 168 -96 232 -76 77 -202 119 -293
100 l-43 -9 -5 53 c-11 108 -85 221 -174 268 -54 27 -152 40 -214 27 -70 -15
-188 -71 -255 -121 l-50 -38 -17 47 c-23 65 -54 109 -104 147 -130 99 -331 99
-494 1 -50 -30 -58 -32 -75 -20 -10 8 -57 35 -104 60 -47 26 -86 47 -88 48 -5
4 41 203 79 337 21 76 39 144 39 150 0 21 -70 -54 -121 -129 -27 -40 -76 -128
-109 -195 -34 -67 -62 -124 -64 -126 -3 -2 -89 9 -193 25 -178 26 -207 28
-523 28 -207 0 -381 -5 -455 -13 -66 -7 -239 -26 -385 -42 -493 -55 -777 -61
-1115 -25 -146 15 -480 73 -600 104 l-70 17 0 1398 0 1397 22 -6 c12 -3 222
-86 465 -184z m11050 -235 c-2 -233 1 -859 7 -1391 6 -533 9 -970 6 -973 -16
-16 -318 -75 -545 -106 -321 -44 -727 -47 -1050 -7 -638 80 -896 97 -1188 81
-185 -10 -358 -30 -432 -50 -61 -17 -64 -15 -98 68 -17 42 -53 114 -78 159
-49 86 -176 234 -190 220 -4 -4 7 -56 25 -115 33 -105 102 -365 98 -368 -19
-17 -158 -94 -169 -94 -8 0 -46 28 -84 63 -38 34 -132 116 -209 182 -160 137
-385 353 -385 369 0 6 24 24 53 40 111 62 221 164 261 244 22 42 9 41 -67 -7
-34 -22 -98 -52 -142 -66 -69 -24 -92 -27 -170 -23 -108 5 -144 20 -288 115
-248 163 -436 312 -488 384 l-21 29 32 91 c36 103 29 136 -14 73 -35 -52 -98
-100 -142 -108 -37 -7 -104 9 -104 25 0 5 9 42 20 81 11 40 20 83 20 95 0 38
-19 36 -35 -4 -21 -50 -79 -109 -136 -138 -62 -32 -148 -45 -295 -45 l-121 0
-24 52 c-23 51 -74 118 -89 118 -4 0 -7 -37 -7 -82 0 -94 -12 -128 -71 -207
-81 -107 -233 -211 -381 -261 -139 -46 -300 -20 -344 57 -30 53 -16 82 95 201
93 99 137 161 311 432 41 64 63 90 73 86 8 -3 12 -1 9 4 -9 14 50 47 122 70
35 11 147 36 250 55 104 20 256 50 338 67 176 35 325 45 416 29 35 -6 242 -58
459 -116 217 -58 430 -112 474 -120 149 -28 408 -13 856 51 355 51 647 115
1008 220 400 117 563 176 1102 399 129 53 282 117 340 140 58 24 179 75 270
113 91 38 206 87 255 107 103 44 457 183 466 184 3 1 4 -190 1 -423z m-7402
-2673 c155 -82 159 -261 9 -397 -83 -74 -157 -109 -244 -114 -66 -4 -73 -2
-120 30 -93 62 -134 192 -105 331 l11 56 77 42 c111 61 166 78 248 79 59 0 81
-5 124 -27z m698 -89 c109 -45 170 -184 125 -285 -25 -56 -133 -186 -297 -356
-102 -106 -140 -139 -191 -164 -54 -27 -73 -31 -117 -27 -66 6 -122 32 -170
80 -61 61 -82 112 -83 195 0 64 3 75 31 115 39 53 338 326 418 381 110 74 204
95 284 61z m393 -336 c55 -16 113 -69 143 -130 30 -61 33 -108 7 -163 -38 -84
-337 -450 -412 -504 -158 -115 -400 11 -399 208 1 81 36 128 287 384 206 210
260 240 374 205z m232 -502 c41 -17 91 -74 107 -122 7 -21 10 -59 7 -89 -6
-60 -55 -188 -98 -259 -20 -32 -27 -52 -20 -59 15 -15 72 25 109 77 l33 45 75
-56 75 -57 -23 -18 c-31 -23 -168 -74 -248 -93 -94 -21 -198 -19 -264 5 -176
66 -222 191 -127 347 97 160 136 215 176 252 42 39 48 41 105 41 33 0 75 -6
93 -14z m2428 -2155 c9 -9 277 -620 363 -826 130 -312 274 -636 300 -676 33
-49 93 -89 144 -96 32 -4 41 -10 45 -29 2 -13 2 -26 -1 -29 -3 -3 -176 -5
-384 -5 l-378 0 0 30 c0 28 3 30 38 30 84 0 152 41 152 93 0 11 -30 95 -67
188 l-67 169 -320 0 -321 0 -58 -144 c-64 -156 -75 -207 -55 -246 17 -33 73
-60 124 -60 36 0 42 -3 46 -25 3 -13 3 -27 0 -30 -3 -3 -126 -5 -274 -5 l-268
0 0 25 c0 21 7 26 44 36 97 24 118 57 282 442 48 111 162 376 255 588 92 212
181 419 198 460 55 140 43 128 125 122 39 -3 74 -8 77 -12z m-4176 -31 c0 -23
-4 -25 -60 -31 -73 -7 -100 -20 -121 -61 -21 -41 -14 -75 48 -217 104 -240
227 -532 303 -716 43 -104 81 -193 85 -197 3 -5 24 38 46 95 23 56 114 284
204 507 89 223 165 424 168 447 7 62 -13 102 -62 124 -23 10 -58 19 -78 19
-41 0 -52 11 -43 40 6 19 16 20 281 20 l274 0 0 -25 c0 -26 -3 -29 -55 -40
-17 -4 -50 -27 -75 -54 -49 -51 -55 -64 -376 -841 -80 -195 -180 -435 -221
-532 l-75 -178 -82 0 c-80 0 -82 1 -93 28 -16 39 -281 648 -558 1282 -72 165
-98 212 -136 247 -28 26 -89 53 -119 53 -14 0 -20 7 -20 23 0 13 3 27 7 30 4
4 176 6 382 5 l376 -3 0 -25z m2915 -175 l0 -205 -25 0 c-14 0 -27 6 -29 13
-37 140 -75 198 -154 235 -52 24 -71 26 -209 30 l-153 4 0 -658 c0 -423 4
-672 10 -696 22 -79 83 -118 184 -118 44 0 46 -1 46 -30 l0 -30 -400 0 -400 0
0 30 c0 29 1 30 53 30 30 0 70 9 95 20 75 34 72 2 72 770 l0 680 -113 0 c-253
0 -342 -47 -389 -207 -19 -63 -25 -73 -45 -73 l-23 0 0 205 0 205 740 0 740 0
0 -205z"/>
<path d="M10196 15111 c-83 -55 -70 -174 23 -202 49 -15 89 -1 126 43 45 53
24 137 -40 164 -46 19 -74 18 -109 -5z"/>
<path d="M11700 14597 c-102 -245 -303 -732 -417 -1007 -58 -140 -107 -259
-109 -265 -4 -9 402 -15 554 -7 l54 2 -3 711 c-2 391 -6 712 -9 714 -4 2 -35
-65 -70 -148z"/>
<path d="M8556 14558 c-43 -101 -131 -313 -196 -473 -65 -159 -160 -389 -210
-510 -51 -121 -94 -230 -97 -241 -5 -22 -4 -22 134 -20 76 2 211 3 301 4 l162
2 0 710 c0 391 -4 710 -9 710 -4 0 -43 -82 -85 -182z"/>
<path d="M8715 14638 c-3 -56 -5 -377 -3 -713 l3 -610 297 0 c163 0 299 3 302
6 3 3 -18 64 -48 135 -29 71 -115 280 -190 464 -157 382 -335 801 -346 813 -5
5 -11 -38 -15 -95z"/>
<path d="M11849 14680 c-1 -36 -3 -85 -4 -110 -2 -25 -1 -318 2 -651 l6 -606
293 -1 c246 -1 294 1 294 13 0 13 -87 227 -382 940 -66 160 -136 328 -155 375
-19 47 -39 89 -44 95 -5 5 -9 -16 -10 -55z"/>
<path d="M4716 10984 c-17 -44 89 -137 239 -209 233 -111 536 -178 1150 -250
353 -42 795 -120 1140 -201 172 -40 219 -41 135 -2 -71 33 -295 105 -485 157
-150 41 -665 148 -1035 215 -536 97 -865 183 -1042 272 -76 38 -93 41 -102 18z"/>
<path d="M10682 10600 c2 -6 37 -25 78 -43 41 -18 105 -52 141 -75 75 -48 84
-50 99 -22 25 47 -42 105 -155 135 -68 17 -168 20 -163 5z"/>
<path d="M10437 9981 c65 -60 131 -93 200 -99 57 -5 83 7 83 38 0 28 -23 40
-113 55 -46 9 -111 24 -142 35 -32 11 -63 20 -69 20 -6 -1 12 -23 41 -49z"/>
<path d="M9940 9604 c0 -33 121 -174 172 -200 46 -24 118 -14 140 20 11 17 1
23 -67 46 -36 12 -106 48 -155 81 -50 32 -90 56 -90 53z"/>
<path d="M15556 10964 c-184 -85 -385 -141 -766 -214 -948 -180 -1300 -261
-1617 -371 -133 -47 -173 -65 -173 -79 0 -17 44 -11 217 29 447 102 738 152
1303 221 474 58 852 162 1038 284 69 46 132 106 132 127 0 15 -19 49 -28 49
-4 0 -52 -21 -106 -46z"/>
<path d="M12062 6172 c-35 -81 -94 -219 -132 -307 l-68 -160 135 -3 c74 -1
192 -1 262 0 l128 3 -119 280 c-65 154 -124 292 -130 307 -13 27 -15 23 -76
-120z"/>
</g>
</svg>
