<svg xmlns="http://www.w3.org/2000/svg" viewBox="0 0 1000 400" fill="none" stroke="currentColor" stroke-width="2.5" stroke-linecap="round" stroke-linejoin="round">
  <!-- SUV : haut, carré, garde au sol -->
  <path d="M60 285 L60 265 Q65 250 95 245 L170 235 Q200 135 290 130 L780 130 Q870 140 905 200 L935 210 L935 295 L60 295 Z" />
  <line x1="200" y1="230" x2="285" y2="130" />
  <line x1="290" y1="130" x2="780" y2="130" />
  <line x1="780" y1="130" x2="905" y2="200" />
  <line x1="380" y1="130" x2="380" y2="228" />
  <line x1="520" y1="130" x2="520" y2="228" />
  <line x1="660" y1="130" x2="660" y2="228" />
  <circle cx="215" cy="292" r="48" />
  <circle cx="215" cy="292" r="24" />
  <circle cx="785" cy="292" r="48" />
  <circle cx="785" cy="292" r="24" />
</svg>
